<svg width="69.8099609375px" height="121.40498046875px" xmlns="http://www.w3.org/2000/svg" viewBox="215.09501953125 14.297509765625001 69.8099609375 121.40498046875" style="background: rgba(0, 0, 0, 0);" preserveAspectRatio="xMidYMid"><defs><filter id="editing-extrusion" x="-100%" y="-100%" width="300%" height="300%"><feFlood result="color1" flood-color="#444"></feFlood><feConvolveMatrix order="8,8" divisor="1" kernelMatrix="1 0 0 0 0 0 0 0 0 1 0 0 0 0 0 0 0 0 1 0 0 0 0 0 0 0 0 1 0 0 0 0 0 0 0 0 1 0 0 0 0 0 0 0 0 1 0 0 0 0 0 0 0 0 1 0 0 0 0 0 0 0 0 1" in="SourceAlpha" result="extrude"></feConvolveMatrix><feComposite in="color1" in2="extrude" result="comp-extrude" operator="in"></feComposite><feOffset dx="4" dy="4" in="comp-extrude" result="offset-extrude"></feOffset><feMerge><feMergeNode in="offset-extrude"></feMergeNode><feMergeNode in="SourceGraphic"></feMergeNode></feMerge></filter></defs><g filter="url(#editing-extrusion)"><g transform="translate(232.58687436580658, 92.5999984741211)"><path d="M9.60 0.19L9.60 0.19L9.60 0.19Q7.55 1.28 4.74 1.28L4.74 1.28L4.74 1.28Q1.92 1.28 0.38-0.16L0.38-0.16L0.38-0.16Q-1.15-1.60-1.15-4.38L-1.15-4.38L-1.15-4.38Q-1.15-7.17 0.80-9.89L0.80-9.89L0.80-9.89Q2.75-12.61 5.66-14.14L5.66-14.14L5.66-14.14Q8.58-15.68 10.62-16.58L10.62-16.58L6.59-25.86L6.59-25.86Q5.50-28.22 3.46-28.22L3.46-28.22L2.94-28.16L2.75-28.16L2.75-28.16Q3.14-30.40 5.76-32.13L5.76-32.13L5.76-32.13Q8.38-33.92 11.39-33.92L11.39-33.92L11.39-33.92Q16.26-33.92 18.50-29.06L18.50-29.06L19.01-28.03L21.76-21.25L21.76-21.25Q23.49-22.02 24.22-23.46L24.22-23.46L24.22-23.46Q24.96-24.90 24.96-27.74L24.96-27.74L24.96-27.74Q24.96-30.59 23.42-32.38L23.42-32.38L23.42-32.38Q25.86-33.92 29.06-33.92L29.06-33.92L29.06-33.92Q34.82-33.92 34.82-28.35L34.82-28.35L34.82-28.35Q34.82-22.27 27.20-18.75L27.20-18.75L23.36-16.96L26.82-8.06L26.82-8.06Q27.84-5.38 29.70-4.22L29.70-4.22L29.70-4.22Q30.46-3.71 31.36-3.65L31.36-3.65L31.36-3.65Q29.44-0.51 25.28 0.90L25.28 0.90L25.28 0.90Q24 1.28 22.27 1.28L22.27 1.28L22.27 1.28Q20.54 1.28 18.56 0.10L18.56 0.10L18.56 0.10Q16.58-1.09 15.87-2.94L15.87-2.94L12.35-12.10L12.35-12.10Q8.77-10.50 8.77-4.67L8.77-4.67L8.77-4.67Q8.77-1.98 9.60 0.19Z" fill="#ccc"></path></g></g><style>text {
  font-size: 64px;
  font-family: Arial Black;
  dominant-baseline: central;
  text-anchor: middle;
}</style></svg>